<svg width="1200" height="1201" viewBox="0 0 1200 1201" fill="none" xmlns="http://www.w3.org/2000/svg">
<path d="M1162.5 1200.95C1152.5 1200.95 1143.05 1197.05 1136 1189.95L600 654L64 1189.95C56.9 1197.05 47.5 1200.95 37.5 1200.95C27.5 1200.95 18.05 1197.05 11 1189.95C-3.6 1175.35 -3.6 1151.55 11 1136.9L547 600.9L11 64.9499C3.9 57.8999 0 48.4499 0 38.4499C0 28.4499 3.9 18.9999 11 11.9499C18.05 4.8499 27.5 0.949902 37.5 0.949902C47.5 0.949902 56.95 4.8499 64 11.9499L600 547.9L1136 11.8999C1143.1 4.7999 1152.5 0.899902 1162.5 0.899902C1172.5 0.899902 1181.95 4.7999 1189 11.8999C1196.1 18.9999 1200 28.4499 1200 38.4499C1200 48.4499 1196.1 57.8999 1189 64.9499L653 600.95L1189 1136.95C1203.6 1151.55 1203.6 1175.35 1189 1190C1181.95 1197.05 1172.5 1200.95 1162.5 1200.95Z" fill="#282828"/>
</svg>
